<?xml version="1.0" encoding="UTF-8" standalone="no"?>
<!-- Created with Inkscape (http://www.inkscape.org/) -->

<svg
   width="145.34029mm"
   height="122.67813mm"
   viewBox="0 0 145.34029 122.67813"
   version="1.1"
   id="svg5"
   inkscape:version="1.1.2 (b8e25be833, 2022-02-05)"
   sodipodi:docname="Fanatics 2015 (Icon).svg"
   xmlns:inkscape="http://www.inkscape.org/namespaces/inkscape"
   xmlns:sodipodi="http://sodipodi.sourceforge.net/DTD/sodipodi-0.dtd"
   xmlns="http://www.w3.org/2000/svg"
   xmlns:svg="http://www.w3.org/2000/svg">
  <sodipodi:namedview
     id="namedview7"
     pagecolor="#ffffff"
     bordercolor="#666666"
     borderopacity="1.0"
     inkscape:pageshadow="2"
     inkscape:pageopacity="0.0"
     inkscape:pagecheckerboard="0"
     inkscape:document-units="mm"
     showgrid="false"
     inkscape:zoom="1.2810466"
     inkscape:cx="393.81862"
     inkscape:cy="217.79068"
     inkscape:window-width="1920"
     inkscape:window-height="1017"
     inkscape:window-x="-8"
     inkscape:window-y="-8"
     inkscape:window-maximized="1"
     inkscape:current-layer="layer1" />
  <defs
     id="defs2" />
  <g
     inkscape:label="Layer 1"
     inkscape:groupmode="layer"
     id="layer1"
     transform="translate(69.440846,-56.192828)">
    <g
       transform="matrix(1.3434901,0,0,1.3434901,-97.22051,49.904547)"
       id="g324" />
    <path
       id="path318"
       d="M 75.656081,70.43799 61.146388,93.008623 c -0.268697,0.403046 -0.940442,0.671744 -1.343489,0.403046 -33.452903,-16.793625 -72.145418,14.106651 -106.270065,6.717451 -0.268698,-0.13435 -0.537396,-0.268697 -0.806094,-0.537395 0.13435,0 -16.390579,-25.257614 -21.898888,-33.721601 -0.671745,-1.074792 0.13435,-2.552632 1.612188,-2.418283 2.955678,0.671746 15.853183,3.493075 25.79501,4.299169 51.7243672,2.821329 79.803309,-28.213292 117.286682,1.209141 0.403047,0.268698 0.537396,0.940443 0.134351,1.477839 z M -67.828658,63.451841 m -1.612188,2.418283 m 1.612188,-2.418283 M 33.470493,135.05986 c 0.268698,0.13439 0.537396,0 0.806094,-0.2687 l 17.46537,-27.27284 c 0.268698,-0.40305 0,-0.8061 -0.403047,-0.94045 -25.391961,-8.732682 -49.171736,8.06094 -85.445967,9.00139 -0.940443,0 -1.880886,1.07479 -1.209141,2.28393 l 39.0955599,60.45705 c 0.537396,1.07479 1.8808874,0.40305 1.7465384,-0.53739 l -8.4639881,-38.28947 c -0.1343505,-0.40305 0.1343505,-0.67175 0.403047,-0.8061 3.35872484,-0.94044 25.5263118,-8.46398 36.0055338,-3.62742 z"
       class="st23"
       inkscape:connector-curvature="0"
       style="fill:#e53d2e;stroke-width:1.34349" />
  </g>
  <style
     id="style10"
     type="text/css">
	.st0{fill:#FFFFFF;}
	.st1{fill:#003B75;}
	.st2{fill:#FFFFFF;enable-background:new    ;}
	.st3{fill:#DA2128;}
	.st4{fill:none;stroke:#09203F;}
	.st5{fill:#CA2027;}
	.st6{fill:#2A2B79;}
	.st7{fill:#066CB4;}
	.st8{fill:#EA1D4D;}
	.st9{fill:#CFD2D3;}
	.st10{fill:url(#SVGID_1_);}
	.st11{fill:url(#SVGID_2_);}
	.st12{fill:url(#SVGID_3_);}
	.st13{fill:url(#SVGID_4_);}
	.st14{fill:url(#SVGID_5_);}
	.st15{fill:url(#SVGID_6_);}
	.st16{fill:url(#SVGID_7_);}
	.st17{fill:url(#SVGID_8_);}
	.st18{fill:#09203F;}
	.st19{fill:#333333;}
	.st20{fill:#005CB9;}
	.st21{fill:#EA0029;}
	.st22{fill:#F5CE3E;}
	.st23{fill:#E53D2E;}
</style>
</svg>
